{"title":"Marauders.(2016).1080p[)(]AC3-5.1-(US).mkv","uid":15183170,"size":5722352035,"categoryP":"video","categoryS":"movies","magnet":"?xt=urn:btih:96225762a36f8fcb86596e39204294b9e219c9e1&amp;dn=Marauders.%282016%29.1080p%5B%29%28%5DAC3-5.1-%28US%29.mkv&amp;tr=udp%3A%2F%2Ftracker.leechers-paradise.org%3A6969&amp;tr=udp%3A%2F%2Fzer0day.ch%3A1337&amp;tr=udp%3A%2F%2Fopen.demonii.com%3A1337&amp;tr=udp%3A%2F%2Ftracker.coppersurfer.tk%3A6969&amp;tr=udp%3A%2F%2Fexodus.desync.com%3A6969","seeders":0,"leechers":2,"uploader":"Tyr3ll","files":1,"time":1467473223,"description":"Marauders.(2016).1080p[)(]AC3-5.1-(US)\r\n\r\nSee imdb right here : \nhttp://www.imdb.com/title/tt3963816/\r\n\r\nSource : HDrip 720p (Xvid Mpeg4/H263 + Ac3-5.1)\r\n\r\nGeneral purpose : conversion to new hd rip 1080p @ Copy by Master dubbing (full screen resolution) as Preview release.\r\n\r\nVideo codec : Mkv.h263\r\n\r\nAudio : Ac3-5.1\r\n\r\nLanguage : US English only\r\n\r\nSub : same\r\n\r\nFinal size : 5,32 GB\r\n\r\nResults : Acceptable quality/Normal quality or close to, but a bit grainy anyway.\r\n\r\n________________________________________________________________________\r\n\r\n\r\nGeneral\r\n\r\nComplete name                  : C:/Marauders.(2016).1080p[)(]AC3-5.1-(US).mkv\r\nFormat                         : Matroska\r\nFormat version                 : Version 4 / Version 2\r\nFile size                      : 5.33 GiB\r\nDuration                       : 1h 47mn\r\nOverall bit rate               : 7 122 Kbps\r\nEncoded date                   : UTC 2016-07-02 11:24:35\r\nWriting application            : Lavf57.40.101\r\nWriting library                : Lavf57.40.101 / Lavf57.40.101\r\n\r\nVideo\r\nID                             : 1\r\nFormat                         : H.263\r\nCodec ID                       : V_MS/VFW/FOURCC / H263\r\nDuration                       : 1h 47mn\r\nBit rate                       : 6 340 Kbps\r\nWidth                          : 1 920 pixels\r\nHeight                         : 792 pixels\r\nDisplay aspect ratio           : 2.40:1\r\nFrame rate mode                : Constant\r\nFrame rate                     : 23.976 (24000/1001) fps\r\nBit depth                      : 8 bits\r\nCompression mode               : Lossy\r\nBits/(Pixel*Frame)             : 0.174\r\nStream size                    : 4.74 GiB (89%)\r\nWriting library                : Lavc57.47.100 h263p\r\nLanguage                       : English\r\nDefault                        : Yes\r\nForced                         : No\r\nDURATION                       : 01:47:07.969000000\r\n\r\nAudio\r\nID                             : 2\r\nFormat                         : AC-3\r\nFormat/Info                    : Audio Coding 3\r\nMode extension                 : CM (complete main)\r\nFormat settings, Endianness    : Big\r\nCodec ID                       : A_AC3\r\nDuration                       : 1h 47mn\r\nBit rate mode                  : Constant\r\nBit rate                       : 640 Kbps\r\nChannel(s)                     : 6 channels\r\nChannel positions              : Front: L C R, Side: L R, LFE\r\nSampling rate                  : 48.0 KHz\r\nFrame rate                     : 31.250 fps (1536 spf)\r\nBit depth                      : 16 bits\r\nCompression mode               : Lossy\r\nStream size                    : 490 MiB (9%)\r\nWriting library                : Lavc57.47.100 ac3_fixed\r\nLanguage                       : English\r\nDefault                        : Yes\r\nForced                         : No\r\nDURATION                       : 01:47:07.904000000\r\n\r\nText\r\nID                             : 3\r\nFormat                         : UTF-8\r\nCodec ID                       : S_TEXT/UTF8\r\nCodec ID/Info                  : UTF-8 Plain Text\r\nLanguage                       : English\r\nDefault                        : Yes\r\nForced                         : No\r\nDURATION                       : 01:39:50.088000000\r\n\r\n\r\nEnjoy and seed, please.\r\nTy and best regards","torrent":{"xt":"urn:btih:96225762a36f8fcb86596e39204294b9e219c9e1","amp;dn":"Marauders.%282016%29.1080p%5B%29%28%5DAC3-5.1-%28US%29.mkv","amp;tr":["udp%3A%2F%2Ftracker.leechers-paradise.org%3A6969","udp%3A%2F%2Fzer0day.ch%3A1337","udp%3A%2F%2Fopen.demonii.com%3A1337","udp%3A%2F%2Ftracker.coppersurfer.tk%3A6969","udp%3A%2F%2Fexodus.desync.com%3A6969"],"infoHash":"96225762a36f8fcb86596e39204294b9e219c9e1","infoHashBuffer":{"type":"Buffer","data":[150,34,87,98,163,111,143,203,134,89,110,57,32,66,148,185,226,25,201,225]},"announce":[],"urlList":[]}}